<svg width="40" height="40" viewBox="0 0 40 40" fill="none" xmlns="http://www.w3.org/2000/svg">
<mask id="mask0_10084_140" style="mask-type:alpha" maskUnits="userSpaceOnUse" x="0" y="0" width="40" height="40">
<rect width="40" height="40" fill="#D9D9D9"/>
</mask>
<g mask="url(#mask0_10084_140)">
<path d="M9.83125 29.1283V15.427H11.9254V29.1283H9.83125ZM19.0321 29.1283V15.427H21.1258V29.1283H19.0321ZM4.61542 12.4999V10.6754L20 2.5791L35.3846 10.6754V12.4999H4.61542ZM9.64333 10.4058H30.3675L20 4.96577L9.64333 10.4058ZM4.61542 34.1495V32.0554H24.2746C24.3088 32.4059 24.3483 32.7487 24.3933 33.0837C24.4381 33.419 24.5171 33.7742 24.6304 34.1495H4.61542ZM28.0746 23.2937V15.427H30.1688V22.247L28.0746 23.2937ZM33.3333 39.3587C31.5556 38.9187 30.0854 37.9001 28.9229 36.3029C27.7607 34.7056 27.1796 32.9316 27.1796 30.9808V27.0512L33.3333 23.9745L39.4871 27.0512V30.9808C39.4871 32.9316 38.906 34.7056 37.7438 36.3029C36.5813 37.9001 35.1111 38.9187 33.3333 39.3587ZM32.2829 34.6474L37.7683 29.1708L36.6633 28.0553L32.2829 32.4187L30.2521 30.3879L29.1475 31.5012L32.2829 34.6474Z" fill="#16277B"/>
</g>
</svg>
