<svg width="40" height="40" viewBox="0 0 40 40" fill="none" xmlns="http://www.w3.org/2000/svg">
<mask id="mask0_10084_174" style="mask-type:alpha" maskUnits="userSpaceOnUse" x="0" y="0" width="40" height="40">
<rect width="40" height="40" fill="#D9D9D9"/>
</mask>
<g mask="url(#mask0_10084_174)">
<path d="M14.1133 34.1668C11.8119 34.1668 9.85665 33.3621 8.24748 31.7527C6.63804 30.1435 5.83331 28.1882 5.83331 25.8868C5.83331 24.906 6.00053 23.9634 6.33498 23.0589C6.66942 22.1545 7.1429 21.3261 7.7554 20.5739L13.8429 13.2768L10.1241 5.8335H29.8929L26.1846 13.2768L32.2446 20.5739C32.8757 21.3261 33.3537 22.1545 33.6787 23.0589C34.004 23.9634 34.1723 24.906 34.1837 25.8868C34.1837 28.1882 33.3776 30.1435 31.7654 31.7527C30.1532 33.3621 28.2029 34.1668 25.9146 34.1668H14.1133ZM20 25.8731C19.2814 25.8731 18.6701 25.6182 18.1662 25.1085C17.6623 24.5991 17.4104 23.9832 17.4104 23.261C17.4104 22.5388 17.6623 21.9246 18.1662 21.4185C18.6701 20.9124 19.2814 20.6593 20 20.6593C20.7372 20.6593 21.3589 20.9124 21.865 21.4185C22.3708 21.9246 22.6237 22.5388 22.6237 23.261C22.6237 23.9832 22.3708 24.5991 21.865 25.1085C21.3589 25.6182 20.7372 25.8731 20 25.8731ZM15.7425 12.3881H24.2733L26.5096 7.92766H13.5075L15.7425 12.3881ZM14.1133 32.0727H25.8866C27.6061 32.0727 29.0669 31.4689 30.2691 30.2614C31.4714 29.0536 32.0725 27.5954 32.0725 25.8868C32.0725 25.1577 31.9498 24.4538 31.7046 23.7752C31.4593 23.0968 31.1062 22.482 30.6454 21.9306L24.4425 14.4818H15.5821L9.3879 21.9222C8.92706 22.4806 8.56845 23.0986 8.31206 23.7764C8.05567 24.4542 7.92748 25.1577 7.92748 25.8868C7.92748 27.5954 8.53123 29.0536 9.73873 30.2614C10.9465 31.4689 12.4047 32.0727 14.1133 32.0727Z" fill="#16277B"/>
</g>
</svg>
