<svg width="40" height="40" viewBox="0 0 40 40" fill="none" xmlns="http://www.w3.org/2000/svg">
<mask id="mask0_10084_156" style="mask-type:alpha" maskUnits="userSpaceOnUse" x="0" y="0" width="40" height="40">
<rect width="40" height="40" fill="#D9D9D9"/>
</mask>
<g mask="url(#mask0_10084_156)">
<path d="M16.1775 23.8224V16.1944H23.8054V23.8224H16.1775ZM18.2712 21.7286H21.7116V18.2882H18.2712V21.7286ZM15.4166 33.7819V30.8332H11.7737C11.0573 30.8332 10.4437 30.5778 9.9329 30.0669C9.42206 29.5561 9.16665 28.9425 9.16665 28.2261V24.5832H6.2179V22.489H9.16665V17.4315H6.2179V15.3374H9.16665V11.6944C9.16665 10.9781 9.42206 10.3644 9.9329 9.85361C10.4437 9.34277 11.0573 9.08736 11.7737 9.08736H15.4166V6.21777H17.5108V9.08736H22.5683V6.21777H24.6625V9.08736H28.3054C29.0218 9.08736 29.6354 9.34277 30.1462 9.85361C30.6571 10.3644 30.9125 10.9781 30.9125 11.6944V15.3374H33.7821V17.4315H30.9125V22.489H33.7821V24.5832H30.9125V28.2261C30.9125 28.9425 30.6571 29.5561 30.1462 30.0669C29.6354 30.5778 29.0218 30.8332 28.3054 30.8332H24.6625V33.7819H22.5683V30.8332H17.5108V33.7819H15.4166ZM28.3054 28.739C28.4337 28.739 28.5512 28.6857 28.6579 28.579C28.7648 28.4721 28.8183 28.3544 28.8183 28.2261V11.6944C28.8183 11.5661 28.7648 11.4486 28.6579 11.3419C28.5512 11.235 28.4337 11.1815 28.3054 11.1815H11.7737C11.6454 11.1815 11.5278 11.235 11.4208 11.3419C11.3141 11.4486 11.2608 11.5661 11.2608 11.6944V28.2261C11.2608 28.3544 11.3141 28.4721 11.4208 28.579C11.5278 28.6857 11.6454 28.739 11.7737 28.739H28.3054Z" fill="#16277B"/>
</g>
</svg>
